HIERARCHY
ROOT Hips
{
  OFFSET -187.679 86.5976 -156.378
  CHANNELS 6 Xposition Yposition Zposition Zrotation Xrotation Yrotation
  JOINT LeftUpLeg
  {
    OFFSET 8.64259 1.95398 -2.38835
    CHANNELS 3 Zrotation Xrotation Yrotation
    JOINT LeftLeg
    {
      OFFSET 43.7702 0 0
      CHANNELS 3 Zrotation Xrotation Yrotation
      JOINT LeftFoot
      {
        OFFSET 40.6238 0 0
        CHANNELS 3 Zrotation Xrotation Yrotation
        JOINT LeftToeBase
        {
          OFFSET 12.7242 0 0
          CHANNELS 3 Zrotation Xrotation Yrotation
          End Site
          {
            OFFSET 0 0 0
          }
        }
      }
    }
  }
  JOINT RightUpLeg
  {
    OFFSET -8.2249 1.95398 -2.59336
    CHANNELS 3 Zrotation Xrotation Yrotation
    JOINT RightLeg
    {
      OFFSET 43.5653 0 0
      CHANNELS 3 Zrotation Xrotation Yrotation
      JOINT RightFoot
      {
        OFFSET 40.6238 0 0
        CHANNELS 3 Zrotation Xrotation Yrotation
        JOINT RightToeBase
        {
          OFFSET 12.7242 0 0
          CHANNELS 3 Zrotation Xrotation Yrotation
          End Site
          {
            OFFSET 0 0 0
          }
        }
      }
    }
  }
  JOINT Spine
  {
    OFFSET 0.165834 0.87714 6.61349
    CHANNELS 3 Zrotation Xrotation Yrotation
    JOINT Spine1
    {
      OFFSET 7.38963 1.71661e-005 0
      CHANNELS 3 Zrotation Xrotation Yrotation
      JOINT Spine2
      {
        OFFSET 11.9445 1.14441e-005 0
        CHANNELS 3 Zrotation Xrotation Yrotation
        JOINT Spine3
        {
          OFFSET 14.7254 4.19617e-005 0
          CHANNELS 3 Zrotation Xrotation Yrotation
          JOINT Spine4
          {
            OFFSET 10.9679 0 0
            CHANNELS 3 Zrotation Xrotation Yrotation
            JOINT RightShoulder
            {
              OFFSET 2.46616 -1.6653 3.69651
              CHANNELS 3 Zrotation Xrotation Yrotation
              JOINT RightArm
              {
                OFFSET 13.0012 0 0
                CHANNELS 3 Zrotation Xrotation Yrotation
                JOINT RightForeArm
                {
                  OFFSET 28.7848 1.52588e-005 0
                  CHANNELS 3 Zrotation Xrotation Yrotation
                  JOINT RightHand
                  {
                    OFFSET 26.5688 1.52588e-005 0
                    CHANNELS 3 Zrotation Xrotation Yrotation
                    End Site
                    {
                      OFFSET 0 0 0
                    }
                  }
                }
              }
            }
            JOINT LeftShoulder
            {
              OFFSET 2.38034 -1.29275 -3.7523
              CHANNELS 3 Zrotation Xrotation Yrotation
              JOINT LeftArm
              {
                OFFSET 16.3182 6.10352e-005 0
                CHANNELS 3 Zrotation Xrotation Yrotation
                JOINT LeftForeArm
                {
                  OFFSET 27.0901 0 0
                  CHANNELS 3 Zrotation Xrotation Yrotation
                  JOINT LeftHand
                  {
                    OFFSET 24.5451 1.52588e-005 0
                    CHANNELS 3 Zrotation Xrotation Yrotation
                    End Site
                    {
                      OFFSET 0 0 0
                    }
                  }
                }
              }
            }
            JOINT Neck
            {
              OFFSET 5.0226 -0.0266342 0
              CHANNELS 3 Zrotation Xrotation Yrotation
              JOINT Head
              {
                OFFSET 6.69363 2.86102e-005 0
                CHANNELS 3 Zrotation Xrotation Yrotation
                End Site
                {
                  OFFSET 0 0 0
                }
              }
            }
          }
        }
      }
    }
  }
}
MOTION
Frames:	10
Frame Time:	0.0416667
-214.969 100.457 -196.038 -102.441 43.3736 -82.2872 -173.465 0.279719 92.7251 -21.856 19.3119 6.98403 65.9097 3.45981 0.0844127 25.7617 -1.74814 1.63228 171.754 -1.20458 88.7204 -24.3507 12.6032 4.4972 69.3818 -3.57769 -0.206008 19.9585 -2.54147 3.09812 0.17497 8.23348 -89.7283 10.4057 0.473049 0.498316 -1.26527 0.494548 0.477004 -23.8 0.301415 0.61745 -3.78735 0.301435 0.617455 87.1583 -48.1263 -105.486 29.053 -21.1625 -7.80005 -20.3508 -16.3352 -24.732 -8.81461 -0.0414658 -4.69826 -92.719 -49.2678 74.7233 -23.4511 22.4765 -1.54253 13.325 0.752698 -22.527 -3.76434 -0.0899017 -3.08151 10.8036 -1.02883 -3.39149 9.54145 -0.242979 -0.293645 
-214.983 100.448 -195.915 -101.701 43.3561 -82.2624 -173.192 1.48558 93.3555 -22.7697 19.8237 6.73725 65.5567 3.36109 0.581771 26.5239 -1.06248 0.552459 172.273 -0.791726 89.4437 -24.0672 13.0966 4.49004 69.1086 -3.48893 -0.355961 19.8686 -2.56169 3.10484 0.141741 8.17913 -89.7521 10.5146 0.396169 0.457256 -1.15635 0.415903 0.439368 -23.6911 0.240435 0.55518 -3.67843 0.240422 0.555173 86.7383 -48.4346 -106.043 29.1313 -21.3062 -7.41076 -20.7219 -16.6181 -25.2906 -7.88891 -0.00500928 -5.24628 -92.5572 -48.7474 74.8284 -23.0242 22.3642 -1.74829 13.5387 0.599064 -23.2885 -3.80961 -0.0917948 -2.93386 10.7619 -0.934365 -3.7927 9.58499 -0.015755 0.112795 
-215.217 100.482 -195.748 -101.837 43.8018 -82.3795 -173.344 0.931432 92.8579 -22.1284 19.022 6.69695 66.0344 3.51291 0.126452 25.4337 -1.794 1.38798 172.064 -0.688234 88.9714 -24.1773 12.5447 4.33809 69.1335 -3.47484 -0.226789 19.9288 -2.58418 3.19542 0.154576 8.21556 -89.7224 10.4415 0.435269 0.51323 -1.22946 0.457434 0.493564 -23.7641 0.260889 0.620312 -3.75141 0.260898 0.620312 86.7008 -48.5902 -106.054 28.7526 -21.1963 -7.39686 -20.4776 -16.4074 -24.8559 -8.06204 -0.0297246 -4.85827 -92.3488 -48.3958 75.0496 -22.6079 21.7885 -2.38842 14.0831 1.24737 -24.1087 -3.63937 -0.0979554 -3.19489 11.1645 -0.771039 -3.60483 9.33166 0.0934185 -0.0546941 
-215.323 100.491 -195.401 -101.567 44.3848 -82.4148 -173.447 1.49388 92.619 -22.5153 18.64 6.70253 65.5785 3.32436 0.697077 25.1876 -1.59806 0.568658 172.112 0.0994487 89.0724 -24.4269 11.95 4.09219 68.8804 -3.50065 -0.406832 19.9861 -2.59986 3.26654 0.152878 8.21341 -89.751 10.4461 0.418795 0.457744 -1.2249 0.438519 0.438861 -23.7597 0.261866 0.562445 -3.74702 0.261849 0.562433 86.9547 -49.2231 -105.48 27.8792 -21.1663 -7.93928 -20.3494 -17.0524 -24.3005 -8.53306 -0.0223868 -4.96471 -92.5208 -48.7464 74.8824 -21.8687 21.0933 -2.57925 14.8886 2.62458 -24.7432 -4.78494 -0.112539 -2.96387 11.2177 -0.479472 -2.88035 9.29735 0.130619 -0.781173 
-214.825 100.191 -194.668 -101.344 45.4354 -82.5856 -173.524 3.42665 92.3022 -24.7953 18.0259 6.49064 65.8392 3.19221 0.9378 24.2322 -2.11891 0.936586 171.71 3.04372 88.7089 -28.3303 10.4109 3.90453 68.8522 -3.77808 -0.834905 19.8165 -2.58814 3.14845 0.240064 8.25492 -89.8088 10.3631 0.565878 0.330216 -1.3078 0.579878 0.304978 -23.8433 0.440468 0.485015 -3.83061 0.440461 0.485015 88.184 -47.9358 -103.948 28.3126 -21.3398 -8.28742 -20.6931 -17.6943 -24.6152 -8.54887 -0.0392877 -4.71649 -92.7444 -48.9825 74.6099 -21.9108 20.2943 -2.54356 14.7571 1.75926 -25.3898 -3.3562 -0.101402 -2.45967 12.4082 -0.376576 -1.85951 8.71246 -0.0418463 -1.33191 
-213.353 99.4718 -193.118 -99.9637 46.2018 -84.6034 -174.418 7.44099 90.9142 -28.0709 16.6715 6.30353 65.9027 2.94044 0.965275 23.7962 -2.21744 0.735549 170.759 10.3011 87.7989 -36.2957 7.2862 3.7127 68.4322 -3.74388 -1.09592 19.6792 -2.55478 2.99013 0.308475 8.3981 -89.7126 10.0758 0.745661 0.508335 -1.59499 0.767323 0.475023 -24.1304 0.558407 0.708942 -4.11776 0.558417 0.708927 87.9715 -47.7886 -104.32 27.2658 -20.7576 -8.66952 -21.6762 -17.2406 -26.5242 -7.67809 -0.0119331 -5.14444 -92.3566 -48.4414 75.0497 -21.9712 18.0726 -1.03076 14.8623 -0.724743 -30.3836 -1.78477 -0.076355 -2.16086 15.7553 0.030888 -0.530079 8.2754 0.0318988 -1.45669 
-210.668 98.3737 -190.541 -95.1426 44.2845 -90.1529 -175.911 15.7779 88.6053 -32.2123 17.9543 5.57038 63.9065 2.15467 1.63634 23.353 -2.73586 1.61 170.367 20.2564 86.1356 -43.003 4.75272 3.34638 66.345 -2.98735 -1.00877 19.3737 -2.47711 2.63358 0.283841 8.53452 -89.5759 9.80148 0.757967 0.780562 -1.86945 0.791582 0.74644 -24.4036 0.48835 0.972268 -4.39092 0.48834 0.972257 87.3382 -47.1833 -105.484 25.6863 -20.0497 -9.20721 -23.2883 -18.9007 -28.4734 -6.65716 -0.00617117 -5.30725 -92.3142 -48.1218 75.0304 -21.3954 15.4306 0.125934 15.7765 -1.51981 -35.3489 -1.20969 -0.0657276 -2.24629 22.0696 -0.1843 1.67694 8.44607 -0.922482 -1.82638 
-206.8 96.651 -187.549 -89.7021 38.0441 -96.4618 -175.664 27.37 87.0699 -36.2867 27.4346 2.65204 59.8064 0.319711 0.418741 22.9276 -2.99434 1.80398 168.308 30.1085 83.6939 -47.9991 6.37152 5.29802 67.3825 -2.95686 -2.11269 18.1781 -2.97394 3.31061 -0.0200666 8.68357 -89.5981 9.50551 0.141056 0.785461 -2.16568 0.175471 0.778481 -24.6988 -0.101527 0.791539 -4.68613 -0.101527 0.791537 87.8325 -46.5049 -104.907 22.0715 -22.2173 -9.17576 -22.5385 -15.7129 -29.4164 -7.8514 -0.0253168 -4.92248 -92.8466 -47.4977 74.052 -22.7342 12.4369 1.97591 18.6609 0.158347 -40.7883 -0.695761 -0.0554636 -1.96757 30.2522 -0.652207 3.34211 8.10552 -2.02326 -1.10817 
-203.497 94.7622 -184.811 -88.5117 33.9077 -98.8518 -172.714 33.2228 85.3678 -45.1305 30.5421 -0.728944 65.8067 3.00445 -0.30661 25.2227 -2.35366 2.70612 166.236 36.0227 81.4015 -51.8108 6.43806 6.88636 69.7344 -3.55732 -2.50803 16.6568 -3.44791 3.74195 -0.214823 8.84639 -89.6929 9.18168 -0.290935 0.628883 -2.48938 -0.26297 0.641068 -25.024 -0.466498 0.512375 -5.01132 -0.466496 0.512373 87.7647 -46.4142 -105.041 21.8166 -18.1729 -6.21499 -19.4022 -10.2743 -24.8409 -9.51913 -0.0171554 -5.02591 -92.9864 -46.4213 73.5408 -24.6449 12.8313 2.87226 22.0768 3.27828 -42.309 0.515168 0.018428 -0.308662 32.0589 -1.46969 1.48032 8.41831 -1.94555 0.479344 
-201.297 94.0446 -182.219 -91.4949 34.5069 -97.8885 -169.181 30.0133 84.2006 -61.243 20.3162 -1.28936 66.8976 3.97757 1.60973 28.0996 -0.150008 -0.34183 166.936 36.6005 80.3473 -52.437 5.63726 5.74235 68.5687 -3.2231 -2.32477 16.2563 -3.20991 2.96948 -0.264845 8.83804 -89.7388 9.19849 -0.41116 0.546931 -2.47251 -0.386693 0.564489 -25.0076 -0.556528 0.39808 -4.99499 -0.556515 0.398079 88.5744 -45.6408 -103.976 26.8717 -17.9384 -0.219206 -17.4231 -7.88076 -21.7739 -9.82018 -0.0294859 -4.87054 -93.3728 -47.2906 73.1966 -24.4336 8.27789 6.58144 29.2933 6.72004 -50.658 -1.25035 -0.0344323 1.15093 26.8594 -0.893026 0.624401 9.05813 -0.907313 1.57908 
